<mxfile host="app.diagrams.net" modified="2024-03-21T15:10:52.154Z" agent="Mozilla/5.0 (Windows NT 10.0; Win64; x64) AppleWebKit/537.36 (KHTML, like Gecko) Chrome/123.0.0.0 Safari/537.36" etag="pJFy8p2zpDu8nvAVNTR4" version="24.0.7" type="device">
  <diagram name="Page-1" id="u3tfuJ7lVw2XtOiBmdVY">
    <mxGraphModel dx="1434" dy="786" grid="1" gridSize="10" guides="1" tooltips="1" connect="1" arrows="1" fold="1" page="1" pageScale="1" pageWidth="850" pageHeight="1100" math="0" shadow="0">
      <root>
        <mxCell id="0" />
        <mxCell id="1" parent="0" />
        <mxCell id="yTpwKHiRd1YmJKuBHU3g-11" value="" style="rounded=0;whiteSpace=wrap;html=1;" vertex="1" parent="1">
          <mxGeometry x="250" y="130" width="240" height="710" as="geometry" />
        </mxCell>
        <mxCell id="yTpwKHiRd1YmJKuBHU3g-45" value="" style="ellipse;whiteSpace=wrap;html=1;" vertex="1" parent="1">
          <mxGeometry x="310" y="730" width="120" height="50" as="geometry" />
        </mxCell>
        <mxCell id="yTpwKHiRd1YmJKuBHU3g-25" value="" style="rounded=0;whiteSpace=wrap;html=1;" vertex="1" parent="1">
          <mxGeometry x="290" y="165" width="160" height="60" as="geometry" />
        </mxCell>
        <mxCell id="yTpwKHiRd1YmJKuBHU3g-16" value="" style="ellipse;whiteSpace=wrap;html=1;" vertex="1" parent="1">
          <mxGeometry x="287.5" y="640" width="160" height="50" as="geometry" />
        </mxCell>
        <mxCell id="yTpwKHiRd1YmJKuBHU3g-15" value="" style="ellipse;whiteSpace=wrap;html=1;" vertex="1" parent="1">
          <mxGeometry x="265" y="525" width="205" height="50" as="geometry" />
        </mxCell>
        <mxCell id="yTpwKHiRd1YmJKuBHU3g-13" value="" style="ellipse;whiteSpace=wrap;html=1;" vertex="1" parent="1">
          <mxGeometry x="305" y="430" width="125" height="50" as="geometry" />
        </mxCell>
        <mxCell id="yTpwKHiRd1YmJKuBHU3g-12" value="" style="ellipse;whiteSpace=wrap;html=1;" vertex="1" parent="1">
          <mxGeometry x="290" y="340" width="160" height="50" as="geometry" />
        </mxCell>
        <mxCell id="yTpwKHiRd1YmJKuBHU3g-10" value="" style="ellipse;whiteSpace=wrap;html=1;" vertex="1" parent="1">
          <mxGeometry x="290" y="240" width="160" height="50" as="geometry" />
        </mxCell>
        <mxCell id="yTpwKHiRd1YmJKuBHU3g-1" value="User&lt;div&gt;&lt;br&gt;&lt;/div&gt;" style="shape=umlActor;verticalLabelPosition=bottom;verticalAlign=top;html=1;outlineConnect=0;" vertex="1" parent="1">
          <mxGeometry x="110" y="280" width="30" height="60" as="geometry" />
        </mxCell>
        <mxCell id="yTpwKHiRd1YmJKuBHU3g-2" value="Online Shopping System" style="text;html=1;align=center;verticalAlign=middle;resizable=0;points=[];autosize=1;strokeColor=none;fillColor=none;" vertex="1" parent="1">
          <mxGeometry x="290" y="180" width="160" height="30" as="geometry" />
        </mxCell>
        <mxCell id="yTpwKHiRd1YmJKuBHU3g-3" value="Views motorcycles&lt;div&gt;&lt;br&gt;&lt;/div&gt;" style="text;html=1;align=center;verticalAlign=middle;resizable=0;points=[];autosize=1;strokeColor=none;fillColor=none;" vertex="1" parent="1">
          <mxGeometry x="310" y="250" width="120" height="40" as="geometry" />
        </mxCell>
        <mxCell id="yTpwKHiRd1YmJKuBHU3g-4" value="Selects the motorcycle(s)" style="text;html=1;align=center;verticalAlign=middle;resizable=0;points=[];autosize=1;strokeColor=none;fillColor=none;" vertex="1" parent="1">
          <mxGeometry x="290" y="350" width="160" height="30" as="geometry" />
        </mxCell>
        <mxCell id="yTpwKHiRd1YmJKuBHU3g-5" value="Makes the order" style="text;html=1;align=center;verticalAlign=middle;resizable=0;points=[];autosize=1;strokeColor=none;fillColor=none;" vertex="1" parent="1">
          <mxGeometry x="315" y="440" width="110" height="30" as="geometry" />
        </mxCell>
        <mxCell id="yTpwKHiRd1YmJKuBHU3g-6" value="Completes the details for the order" style="text;html=1;align=center;verticalAlign=middle;resizable=0;points=[];autosize=1;strokeColor=none;fillColor=none;" vertex="1" parent="1">
          <mxGeometry x="265" y="535" width="210" height="30" as="geometry" />
        </mxCell>
        <mxCell id="yTpwKHiRd1YmJKuBHU3g-7" value="Makes payment" style="text;html=1;align=center;verticalAlign=middle;resizable=0;points=[];autosize=1;strokeColor=none;fillColor=none;" vertex="1" parent="1">
          <mxGeometry x="310" y="650" width="110" height="30" as="geometry" />
        </mxCell>
        <mxCell id="yTpwKHiRd1YmJKuBHU3g-18" value="" style="edgeStyle=none;orthogonalLoop=1;jettySize=auto;html=1;rounded=0;entryX=0;entryY=0.5;entryDx=0;entryDy=0;" edge="1" parent="1" target="yTpwKHiRd1YmJKuBHU3g-10">
          <mxGeometry width="100" relative="1" as="geometry">
            <mxPoint x="150" y="300" as="sourcePoint" />
            <mxPoint x="190" y="320" as="targetPoint" />
            <Array as="points" />
          </mxGeometry>
        </mxCell>
        <mxCell id="yTpwKHiRd1YmJKuBHU3g-19" value="" style="edgeStyle=none;orthogonalLoop=1;jettySize=auto;html=1;rounded=0;entryX=0;entryY=0.5;entryDx=0;entryDy=0;" edge="1" parent="1" target="yTpwKHiRd1YmJKuBHU3g-13">
          <mxGeometry width="100" relative="1" as="geometry">
            <mxPoint x="150" y="310" as="sourcePoint" />
            <mxPoint x="220" y="330" as="targetPoint" />
            <Array as="points" />
          </mxGeometry>
        </mxCell>
        <mxCell id="yTpwKHiRd1YmJKuBHU3g-20" value="" style="edgeStyle=none;orthogonalLoop=1;jettySize=auto;html=1;rounded=0;exitX=0.5;exitY=1;exitDx=0;exitDy=0;entryX=0.5;entryY=0;entryDx=0;entryDy=0;" edge="1" parent="1" source="yTpwKHiRd1YmJKuBHU3g-13" target="yTpwKHiRd1YmJKuBHU3g-15">
          <mxGeometry width="100" relative="1" as="geometry">
            <mxPoint x="357.5" y="500" as="sourcePoint" />
            <mxPoint x="447.5" y="490" as="targetPoint" />
            <Array as="points" />
          </mxGeometry>
        </mxCell>
        <mxCell id="yTpwKHiRd1YmJKuBHU3g-21" value="" style="edgeStyle=none;orthogonalLoop=1;jettySize=auto;html=1;rounded=0;entryX=0.5;entryY=0;entryDx=0;entryDy=0;" edge="1" parent="1" target="yTpwKHiRd1YmJKuBHU3g-16">
          <mxGeometry width="100" relative="1" as="geometry">
            <mxPoint x="370" y="575" as="sourcePoint" />
            <mxPoint x="525" y="720" as="targetPoint" />
            <Array as="points" />
          </mxGeometry>
        </mxCell>
        <mxCell id="yTpwKHiRd1YmJKuBHU3g-22" value="Paypal&lt;div&gt;&lt;br&gt;&lt;/div&gt;" style="shape=umlActor;verticalLabelPosition=bottom;verticalAlign=top;html=1;outlineConnect=0;" vertex="1" parent="1">
          <mxGeometry x="690" y="630" width="30" height="60" as="geometry" />
        </mxCell>
        <mxCell id="yTpwKHiRd1YmJKuBHU3g-23" value="Credit Card Payment&lt;div&gt;&lt;br&gt;&lt;/div&gt;" style="shape=umlActor;verticalLabelPosition=bottom;verticalAlign=top;html=1;outlineConnect=0;" vertex="1" parent="1">
          <mxGeometry x="690" y="440" width="30" height="60" as="geometry" />
        </mxCell>
        <mxCell id="yTpwKHiRd1YmJKuBHU3g-26" value="" style="edgeStyle=none;orthogonalLoop=1;jettySize=auto;html=1;rounded=0;entryX=0;entryY=0.5;entryDx=0;entryDy=0;entryPerimeter=0;" edge="1" parent="1">
          <mxGeometry width="100" relative="1" as="geometry">
            <mxPoint x="180" y="320" as="sourcePoint" />
            <mxPoint x="300" y="375" as="targetPoint" />
            <Array as="points" />
          </mxGeometry>
        </mxCell>
        <mxCell id="yTpwKHiRd1YmJKuBHU3g-27" value="" style="edgeStyle=none;orthogonalLoop=1;jettySize=auto;html=1;rounded=0;exitX=0.897;exitY=0.18;exitDx=0;exitDy=0;exitPerimeter=0;" edge="1" parent="1" source="yTpwKHiRd1YmJKuBHU3g-16">
          <mxGeometry width="100" relative="1" as="geometry">
            <mxPoint x="510" y="550" as="sourcePoint" />
            <mxPoint x="670" y="480" as="targetPoint" />
            <Array as="points" />
          </mxGeometry>
        </mxCell>
        <mxCell id="yTpwKHiRd1YmJKuBHU3g-28" value="" style="edgeStyle=none;orthogonalLoop=1;jettySize=auto;html=1;rounded=0;exitX=1;exitY=0.5;exitDx=0;exitDy=0;" edge="1" parent="1" source="yTpwKHiRd1YmJKuBHU3g-16">
          <mxGeometry width="100" relative="1" as="geometry">
            <mxPoint x="500" y="680" as="sourcePoint" />
            <mxPoint x="670" y="670" as="targetPoint" />
            <Array as="points" />
          </mxGeometry>
        </mxCell>
        <mxCell id="yTpwKHiRd1YmJKuBHU3g-29" value="Shopping Service" style="shape=umlActor;verticalLabelPosition=bottom;verticalAlign=top;html=1;outlineConnect=0;" vertex="1" parent="1">
          <mxGeometry x="690" y="180" width="30" height="60" as="geometry" />
        </mxCell>
        <mxCell id="yTpwKHiRd1YmJKuBHU3g-40" value="Delivery Service" style="text;html=1;align=center;verticalAlign=middle;resizable=0;points=[];autosize=1;strokeColor=none;fillColor=none;" vertex="1" parent="1">
          <mxGeometry x="312.5" y="740" width="110" height="30" as="geometry" />
        </mxCell>
        <mxCell id="yTpwKHiRd1YmJKuBHU3g-49" style="edgeStyle=orthogonalEdgeStyle;rounded=0;orthogonalLoop=1;jettySize=auto;html=1;exitX=0.5;exitY=0.5;exitDx=0;exitDy=0;exitPerimeter=0;" edge="1" parent="1" source="yTpwKHiRd1YmJKuBHU3g-41">
          <mxGeometry relative="1" as="geometry">
            <mxPoint x="120" y="380" as="targetPoint" />
            <Array as="points">
              <mxPoint x="705" y="930" />
              <mxPoint x="121" y="930" />
            </Array>
          </mxGeometry>
        </mxCell>
        <mxCell id="yTpwKHiRd1YmJKuBHU3g-41" value="Delivery Guy" style="shape=umlActor;verticalLabelPosition=bottom;verticalAlign=top;html=1;outlineConnect=0;" vertex="1" parent="1">
          <mxGeometry x="690" y="780" width="30" height="60" as="geometry" />
        </mxCell>
        <mxCell id="yTpwKHiRd1YmJKuBHU3g-43" value="" style="edgeStyle=none;orthogonalLoop=1;jettySize=auto;html=1;rounded=0;entryX=1;entryY=0;entryDx=0;entryDy=0;" edge="1" parent="1" target="yTpwKHiRd1YmJKuBHU3g-10">
          <mxGeometry width="100" relative="1" as="geometry">
            <mxPoint x="680" y="210" as="sourcePoint" />
            <mxPoint x="680" y="210" as="targetPoint" />
            <Array as="points" />
          </mxGeometry>
        </mxCell>
        <mxCell id="yTpwKHiRd1YmJKuBHU3g-44" value="" style="edgeStyle=none;orthogonalLoop=1;jettySize=auto;html=1;rounded=0;entryX=1.009;entryY=0.1;entryDx=0;entryDy=0;entryPerimeter=0;" edge="1" parent="1" target="yTpwKHiRd1YmJKuBHU3g-5">
          <mxGeometry width="100" relative="1" as="geometry">
            <mxPoint x="670" y="240" as="sourcePoint" />
            <mxPoint x="560" y="380" as="targetPoint" />
            <Array as="points" />
          </mxGeometry>
        </mxCell>
        <mxCell id="yTpwKHiRd1YmJKuBHU3g-47" value="" style="edgeStyle=none;orthogonalLoop=1;jettySize=auto;html=1;rounded=0;exitX=1;exitY=0.5;exitDx=0;exitDy=0;entryX=1;entryY=0.5;entryDx=0;entryDy=0;" edge="1" parent="1" source="yTpwKHiRd1YmJKuBHU3g-45">
          <mxGeometry width="100" relative="1" as="geometry">
            <mxPoint x="520" y="770" as="sourcePoint" />
            <mxPoint x="680" y="820" as="targetPoint" />
            <Array as="points" />
          </mxGeometry>
        </mxCell>
        <mxCell id="yTpwKHiRd1YmJKuBHU3g-48" value="" style="edgeStyle=none;orthogonalLoop=1;jettySize=auto;html=1;rounded=0;entryX=1;entryY=0;entryDx=0;entryDy=0;" edge="1" parent="1" target="yTpwKHiRd1YmJKuBHU3g-45">
          <mxGeometry width="100" relative="1" as="geometry">
            <mxPoint x="680" y="270" as="sourcePoint" />
            <mxPoint x="740" y="330" as="targetPoint" />
            <Array as="points" />
          </mxGeometry>
        </mxCell>
      </root>
    </mxGraphModel>
  </diagram>
</mxfile>
